<svg xmlns="http://www.w3.org/2000/svg" viewBox="0 0 1200 800">
  <defs>
    <radialGradient id="hg1" cx="25%" cy="45%">
      <stop offset="0%" stop-color="#C49A3C" stop-opacity="0.06"/>
      <stop offset="100%" stop-color="#C49A3C" stop-opacity="0"/>
    </radialGradient>
    <radialGradient id="hg2" cx="75%" cy="30%">
      <stop offset="0%" stop-color="#3B6DB5" stop-opacity="0.04"/>
      <stop offset="100%" stop-color="#3B6DB5" stop-opacity="0"/>
    </radialGradient>
    <pattern id="grid" width="80" height="80" patternUnits="userSpaceOnUse">
      <line x1="80" y1="0" x2="80" y2="80" stroke="rgba(255,255,255,0.015)" stroke-width="0.5"/>
      <line x1="0" y1="80" x2="80" y2="80" stroke="rgba(255,255,255,0.015)" stroke-width="0.5"/>
    </pattern>
  </defs>
  <rect width="1200" height="800" fill="#050508"/>
  <rect width="1200" height="800" fill="url(#grid)"/>
  <rect width="1200" height="800" fill="url(#hg1)"/>
  <rect width="1200" height="800" fill="url(#hg2)"/>
  <!-- Decorative circuit paths -->
  <g stroke="rgba(196,154,60,0.04)" stroke-width="1" fill="none">
    <path d="M0 200 L200 200 L240 160 L400 160"/>
    <path d="M0 400 L100 400 L140 360 L320 360 L360 400 L500 400"/>
    <path d="M800 100 L800 300 L840 340 L840 500"/>
    <path d="M1000 0 L1000 200 L960 240 L960 400"/>
    <path d="M600 600 L600 700 L640 740 L800 740"/>
    <circle cx="400" cy="160" r="3" fill="rgba(196,154,60,0.06)"/>
    <circle cx="500" cy="400" r="3" fill="rgba(196,154,60,0.06)"/>
    <circle cx="840" cy="500" r="3" fill="rgba(196,154,60,0.06)"/>
    <circle cx="960" cy="400" r="3" fill="rgba(196,154,60,0.06)"/>
  </g>
  <!-- Floating geometric shapes -->
  <rect x="900" y="150" width="80" height="80" rx="4" fill="none" stroke="rgba(196,154,60,0.03)" stroke-width="1" transform="rotate(15, 940, 190)"/>
  <rect x="100" y="550" width="60" height="60" rx="4" fill="none" stroke="rgba(59,109,181,0.03)" stroke-width="1" transform="rotate(-10, 130, 580)"/>
  <circle cx="700" cy="600" r="40" fill="none" stroke="rgba(196,154,60,0.02)" stroke-width="1"/>
</svg>
