<svg xmlns="http://www.w3.org/2000/svg" viewBox="0 0 400 260" fill="none">
  <rect width="400" height="260" fill="#0F0D2A"/>
  <!-- Printer body -->
  <rect x="110" y="75" width="180" height="100" rx="8" stroke="#7A5CC8" stroke-width="1.8" fill="#161240"/>
  <!-- Printer top slot -->
  <rect x="140" y="68" width="120" height="12" rx="3" fill="#1E1848" stroke="#4C3894" stroke-width="0.8"/>
  <!-- Display panel -->
  <rect x="130" y="92" width="60" height="30" rx="4" fill="#0C0A28" stroke="#38AEE0" stroke-width="0.8"/>
  <rect x="136" y="98" width="30" height="4" rx="1" fill="#55C2F0" opacity="0.5"/>
  <rect x="136" y="106" width="42" height="4" rx="1" fill="#38AEE0" opacity="0.3"/>
  <rect x="136" y="114" width="20" height="4" rx="1" fill="#78D4F8" opacity="0.2"/>
  <!-- Buttons -->
  <circle cx="212" cy="100" r="5" fill="#38286E" stroke="#9270DC" stroke-width="0.8"/>
  <circle cx="230" cy="100" r="5" fill="#38286E" stroke="#9270DC" stroke-width="0.8"/>
  <circle cx="248" cy="100" r="3" fill="#38AEE0" opacity="0.6"/>
  <!-- Card output slot -->
  <rect x="145" y="155" width="110" height="6" rx="2" fill="#0C0A28" stroke="#4C3894" stroke-width="0.6"/>
  <!-- Card coming out -->
  <rect x="155" y="158" width="90" height="55" rx="5" fill="#1E1848" stroke="#AA88EE" stroke-width="1"/>
  <rect x="163" y="168" width="18" height="13" rx="2" fill="#55C2F0" opacity="0.3"/>
  <rect x="163" y="186" width="40" height="3" rx="1" fill="#C0A2F6" opacity="0.25"/>
  <rect x="163" y="193" width="60" height="3" rx="1" fill="#78D4F8" opacity="0.15"/>
  <!-- Recycling/refurbished badge -->
  <circle cx="320" cy="85" r="24" fill="#1E1848" stroke="#38AEE0" stroke-width="1.2"/>
  <path d="M310 82l5-8 5 8M325 88l5 8-10 0M315 96l-5-8h0" stroke="#55C2F0" stroke-width="1.5" stroke-linecap="round" stroke-linejoin="round" fill="none"/>
  <!-- Price tag -->
  <text x="320" y="128" text-anchor="middle" font-family="sans-serif" font-size="9" fill="#38AEE0" opacity="0.6" letter-spacing="1">-40%</text>
  <!-- Label -->
  <text x="200" y="248" text-anchor="middle" font-family="sans-serif" font-size="11" fill="#78D4F8" opacity="0.5" letter-spacing="3">RECONDITIONNÉ</text>
</svg>