<svg xmlns="http://www.w3.org/2000/svg" viewBox="0 0 400 260" fill="none">
  <rect width="400" height="260" fill="#0F0D2A"/>
  <!-- Monitor -->
  <rect x="90" y="50" width="220" height="140" rx="8" stroke="#7A5CC8" stroke-width="2" fill="none"/>
  <rect x="100" y="60" width="200" height="115" rx="3" fill="#161240" stroke="#4C3894" stroke-width="0.8"/>
  <!-- Screen content - UI mockup -->
  <rect x="112" y="72" width="56" height="8" rx="2" fill="#9270DC" opacity="0.5"/>
  <rect x="112" y="86" width="80" height="6" rx="2" fill="#38AEE0" opacity="0.3"/>
  <rect x="112" y="98" width="65" height="6" rx="2" fill="#38AEE0" opacity="0.2"/>
  <!-- Card preview on screen -->
  <rect x="200" y="72" width="88" height="56" rx="4" fill="#1E1848" stroke="#AA88EE" stroke-width="0.8"/>
  <rect x="208" y="80" width="20" height="14" rx="2" fill="#55C2F0" opacity="0.4"/>
  <rect x="208" y="100" width="40" height="4" rx="1" fill="#C0A2F6" opacity="0.3"/>
  <rect x="208" y="108" width="60" height="4" rx="1" fill="#78D4F8" opacity="0.2"/>
  <!-- Color palette dots -->
  <circle cx="122" cy="118" r="5" fill="#9270DC" opacity="0.7"/>
  <circle cx="138" cy="118" r="5" fill="#38AEE0" opacity="0.7"/>
  <circle cx="154" cy="118" r="5" fill="#55C2F0" opacity="0.7"/>
  <circle cx="170" cy="118" r="5" fill="#C0A2F6" opacity="0.7"/>
  <!-- Toolbar icons -->
  <rect x="112" y="134" width="18" height="18" rx="3" fill="#38286E" stroke="#7A5CC8" stroke-width="0.6"/>
  <rect x="136" y="134" width="18" height="18" rx="3" fill="#38286E" stroke="#7A5CC8" stroke-width="0.6"/>
  <rect x="160" y="134" width="18" height="18" rx="3" fill="#38286E" stroke="#7A5CC8" stroke-width="0.6"/>
  <!-- Monitor stand -->
  <rect x="170" y="190" width="60" height="6" rx="1" fill="#4C3894" opacity="0.5"/>
  <rect x="185" y="196" width="30" height="16" rx="0" fill="#38286E" opacity="0.5"/>
  <rect x="160" y="212" width="80" height="4" rx="2" fill="#4C3894" opacity="0.4"/>
  <!-- cardPresso text -->
  <text x="200" y="248" text-anchor="middle" font-family="sans-serif" font-size="11" fill="#78D4F8" opacity="0.5" letter-spacing="3">DESIGN SOFTWARE</text>
</svg>